<svg xmlns="http://www.w3.org/2000/svg" width="48" height="48" viewBox="0 0 48 48">
  <path d="M24,4 C12.95,4 4,12.95 4,24 C4,35.05 12.95,44 24,44 C35.05,44 44,35.05 44,24 C44,12.95 35.05,4 24,4 Z M24,8 C26.21,8 28,9.79 28,12 C28,14.21 26.21,16 24,16 C21.79,16 20,14.21 20,12 C20,9.79 21.79,8 24,8 Z M12,32 C9.79,32 8,30.21 8,28 C8,25.79 9.79,24 12,24 C14.21,24 16,25.79 16,28 C16,30.21 14.21,32 12,32 Z M16,20 C13.79,20 12,18.21 12,16 C12,13.79 13.79,12 16,12 C18.21,12 20,13.79 20,16 C20,18.21 18.21,20 16,20 Z M24,40 C21.79,40 20,38.21 20,36 C20,33.79 21.79,32 24,32 C26.21,32 28,33.79 28,36 C28,38.21 26.21,40 24,40 Z M32,20 C29.79,20 28,18.21 28,16 C28,13.79 29.79,12 32,12 C34.21,12 36,13.79 36,16 C36,18.21 34.21,20 32,20 Z M36,32 C33.79,32 32,30.21 32,28 C32,25.79 33.79,24 36,24 C38.21,24 40,25.79 40,28 C40,30.21 38.21,32 36,32 Z" fill="#ffffff"/>
</svg>
